#N canvas 330 129 623 437 10;
#X obj 415 170 guido;
#X obj 417 102 bng 15 250 50 0 empty empty empty 17 7 0 10 -262144
-1 -1;
#X obj 415 399 print;
#X msg 440 58 reset;
#X msg 443 85 page 1;
#X obj 15 10 cnv 15 400 50 empty empty empty 20 12 0 14 -233017 -66577
0;
#X text 27 16 guido;
#X text 27 34 Music score support based on the Guido Engine;
#X msg 526 80 set [gabc];
#X msg 525 110 size 150 200;
#X text 16 96 guido displays music scores. It is based on the Guido
Music Notation language and accepts litteral Guido code or Guido files
as input. Scores are automatically resized to the box size. In addition
and when the libmusicxml2 library is available \, it also supports
the MusicXML format as file input.;
#X text 17 203 You must have the Guido shared library installed to
use the guido external. Optionally \, you should have the libmusicxml2
library installed to support the MusicXML format as file input.;
#X text 19 282 See: " the guido project at http://guidolib.sourceforge.net
for more information about Guido and for the Guido language specification.
" the libmusicxml project at http://libmusicxml.sourceforge.net/ for
more information about the musicxml library.;
#X msg 524 137 size 180 250;
#N canvas 0 22 450 300 read 0;
#X obj 295 37 inlet;
#X obj 188 184 outlet;
#X obj 189 82 bng 15 250 50 0 empty empty empty 17 7 0 10 -262144 -1
-1;
#X obj 189 112 getdir;
#X obj 189 144 sprintf read %s/%s;
#X connect 0 0 4 1;
#X connect 0 0 2 0;
#X connect 2 0 3 0;
#X connect 3 0 4 0;
#X connect 4 0 1 0;
#X restore 525 55 pd read;
#X msg 525 28 bach.gmn;
#X text 19 406 version 1.01 by D. Fober;
#X connect 0 0 2 0;
#X connect 1 0 0 0;
#X connect 3 0 0 0;
#X connect 4 0 0 0;
#X connect 8 0 0 0;
#X connect 9 0 0 0;
#X connect 13 0 0 0;
#X connect 14 0 0 0;
#X connect 15 0 14 0;
